# xmcd
#
# Track frame offsets:
#	150
#	20007
#	40110
#	55660
#	71905
#	102200
#	121775
#	142610
#	162837
#	189320
#
# Disc length: 2726 seconds
#
# Revision: 0
# Processed by: cddbd v1.5.2PL0 Copyright (c) Steve Scherf et al.
# Submitted via: EasyCDDAExtractor 12.0.1.1
#
DISCID=7a0aa40a
DTITLE=George Hughley - Don't Walk Away From Love
DYEAR=1997
DGENRE=R&B
TTITLE0=All Mixed Up
TTITLE1=Running Out Of Time
TTITLE2=Touch Me
TTITLE3=Good To The Last Drop
TTITLE4=Yesterday's Memories
TTITLE5=True Love
TTITLE6=Guess Who
TTITLE7=Too Late Too Worry
TTITLE8=Don't Walk Away
TTITLE9=Yesterday's Memory II
EXTD=
EXTT0=
EXTT1=
EXTT2=
EXTT3=
EXTT4=
EXTT5=
EXTT6=
EXTT7=
EXTT8=
EXTT9=
PLAYORDER=
